<svg height="457.14286pt" viewBox="0 0 457.14286 457.14286" width="457.14286pt" xmlns="http://www.w3.org/2000/svg"><path d="m448 0h-438.855469c-5.054687 0-9.144531 4.09375-9.144531 9.144531v438.855469c0 5.050781 4.089844 9.144531 9.144531 9.144531h438.855469c5.054688 0 9.144531-4.09375 9.144531-9.144531v-438.855469c0-5.050781-4.089843-9.144531-9.144531-9.144531zm-9.144531 18.285156v60.742188h-420.570313v-60.742188zm0 420.570313h-420.570313v-341.542969h420.570313zm0 0"/><path d="m67.75 56.226562c.542969.367188 1 .640626 1.644531.917969.542969.179688 1.097657.363281 1.640625.453125.644532.183594 1.1875.183594 1.832032.183594 2.375 0 4.757812-.914062 6.402343-2.652344.910157-.820312 1.550781-1.828125 2.007813-3.015625.453125-1.101562.730468-2.289062.730468-3.476562s-.277343-2.375-.730468-3.472657c-.457032-1.097656-1.097656-2.101562-2.007813-3.015624-3.386719-3.386719-9.511719-3.292969-12.894531 0-1.742188 1.734374-2.652344 4.113281-2.652344 6.488281s.910156 4.757812 2.652344 6.492187c.457031.457032.910156.820313 1.375 1.097656zm0 0"/><path d="m111.445312 55.128906c.832032.820313 1.832032 1.464844 2.929688 2.015625 1.097656.453125 2.285156.636719 3.472656.636719 2.472656 0 4.847656-1.003906 6.492188-2.652344.820312-.820312 1.554687-1.828125 2.007812-3.015625.464844-1.101562.644532-2.289062.644532-3.476562s-.179688-2.375-.644532-3.472657c-.453125-1.097656-1.1875-2.101562-2.007812-3.015624-2.5625-2.46875-6.582032-3.292969-9.964844-1.921876-1.097656.457032-2.097656 1.097657-2.929688 1.921876-.910156.914062-1.550781 1.917968-2.007812 3.015624-.457031 1.097657-.730469 2.285157-.730469 3.472657s.273438 2.375.730469 3.476562c.457031 1.1875 1.097656 2.195313 2.007812 3.015625zm0 0"/><path d="m157.894531 56.226562c.453125.367188 1.007813.640626 1.550781.917969.554688.179688 1.097657.363281 1.742188.453125.542969.183594 1.1875.183594 1.730469.183594.644531 0 1.199219 0 1.832031-.183594.554688-.089844 1.097656-.273437 1.652344-.453125.542968-.277343 1.089844-.550781 1.640625-.917969.457031-.277343.914062-.640624 1.375-1.097656 1.644531-1.734375 2.644531-4.023437 2.644531-6.492187 0-2.375-1-4.753907-2.644531-6.488281-.460938-.367188-.917969-.734376-1.375-1.097657-.550781-.367187-1.097657-.640625-1.640625-.824219-.554688-.277343-1.097656-.457031-1.652344-.546874-3.019531-.550782-6.214844.363281-8.320312 2.46875-1.644532 1.734374-2.652344 4.113281-2.652344 6.488281 0 2.46875 1.007812 4.757812 2.652344 6.492187.464843.457032.917968.820313 1.464843 1.097656zm0 0"/><path d="m210 57.800781h174.285156c5.054688 0 9.144532-4.09375 9.144532-9.144531s-4.089844-9.144531-9.144532-9.144531h-174.285156c-5.054688 0-9.144531 4.09375-9.144531 9.144531s4.089843 9.144531 9.144531 9.144531zm0 0"/><path d="m50.652344 177.800781h227.8125c5.054687 0 9.140625-4.09375 9.140625-9.144531s-4.085938-9.144531-9.140625-9.144531h-227.8125c-5.054688 0-9.144532 4.09375-9.144532 9.144531s4.089844 9.144531 9.144532 9.144531zm0 0"/><path d="m50.652344 244.085938h227.8125c5.054687 0 9.140625-4.09375 9.140625-9.144532 0-5.046875-4.085938-9.140625-9.140625-9.140625h-227.8125c-5.054688 0-9.144532 4.09375-9.144532 9.140625 0 5.050782 4.089844 9.144532 9.144532 9.144532zm0 0"/><path d="m50.652344 310.371094h227.8125c5.054687 0 9.140625-4.09375 9.140625-9.144532 0-5.046874-4.085938-9.140624-9.140625-9.140624h-227.8125c-5.054688 0-9.144532 4.09375-9.144532 9.140624 0 5.050782 4.089844 9.144532 9.144532 9.144532zm0 0"/><path d="m50.652344 376.65625h227.8125c5.054687 0 9.140625-4.09375 9.140625-9.144531 0-5.046875-4.085938-9.140625-9.140625-9.140625h-227.8125c-5.054688 0-9.144532 4.09375-9.144532 9.140625 0 5.050781 4.089844 9.144531 9.144532 9.144531zm0 0"/><path d="m320.367188 361.066406h86.125c5.050781 0 9.140624-4.09375 9.140624-9.140625v-167.679687c0-5.050782-4.089843-9.144532-9.140624-9.144532h-86.125c-5.054688 0-9.144532 4.09375-9.144532 9.144532v167.679687c0 5.046875 4.089844 9.140625 9.144532 9.140625zm9.140624-167.679687h67.839844v149.394531h-67.839844zm0 0"/></svg>