<svg id="Layer_1" height="512" viewBox="0 0 128 128" width="512" xmlns="http://www.w3.org/2000/svg" data-name="Layer 1"><path d="m121.5 13.6h-115a1.75 1.75 0 0 0 -1.75 1.75v97.308a1.75 1.75 0 0 0 1.75 1.742h115a1.75 1.75 0 0 0 1.75-1.75v-97.304a1.75 1.75 0 0 0 -1.75-1.746zm-113.25 3.5h111.5v10.637h-111.5zm0 93.808v-79.671h111.5v79.663z"/><path d="m82.958 19.393a3.024 3.024 0 1 0 3.024 3.024 3.024 3.024 0 0 0 -3.024-3.024z"/><path d="m94.792 19.393a3.024 3.024 0 1 0 3.023 3.024 3.024 3.024 0 0 0 -3.023-3.024z"/><path d="m106.625 19.393a3.024 3.024 0 1 0 3.023 3.024 3.023 3.023 0 0 0 -3.023-3.024z"/><path d="m87.032 50.51c-5.793-.138-18.823-4.824-21.784-7.836a1.8 1.8 0 0 0 -2.5 0c-2.961 3.012-15.991 7.7-21.784 7.836a1.748 1.748 0 0 0 -1.708 1.749c0 18.02 2.852 37.765 24 47.569a1.753 1.753 0 0 0 1.472 0c21.152-9.8 24-29.549 24-47.569a1.748 1.748 0 0 0 -1.696-1.749zm-23.032 45.79c-18.093-8.8-21.06-26.176-21.232-42.422 6.157-.732 16.649-4.338 21.232-7.693 4.583 3.355 15.075 6.961 21.232 7.693-.172 16.246-3.139 33.622-21.232 42.422z"/><path d="m58.7 69.122a1.75 1.75 0 1 0 -2.445 2.5l6.522 6.378a1.751 1.751 0 0 0 2.474-.028l11.1-11.355a1.75 1.75 0 0 0 -2.5-2.447l-9.877 10.1z"/></svg>