<svg id="Layer_1" height="512" viewBox="0 0 128 128" width="512" xmlns="http://www.w3.org/2000/svg" data-name="Layer 1"><path d="m121.5 4.75h-115a1.75 1.75 0 0 0 -1.75 1.75v97.31a1.751 1.751 0 0 0 1.75 1.75h23.962a41.469 41.469 0 0 0 33.538 17.75 41.49 41.49 0 0 0 33.539-17.75h23.961a1.751 1.751 0 0 0 1.75-1.75v-97.31a1.75 1.75 0 0 0 -1.75-1.75zm-113.25 3.5h111.5v10.641h-111.5zm55.75 111.56a37.482 37.482 0 0 1 -31.176-16.942l-.035-.055c-.447-.662-.881-1.337-1.3-2.033 7.105-11.935 19.186-19.03 32.511-19.03s25.4 7.094 32.511 19.03c-.416.7-.852 1.377-1.3 2.041l-.019.029c-7.234 10.68-18.667 16.96-31.192 16.96zm35.8-17.75c.083-.142.174-.276.255-.419a1.753 1.753 0 0 0 0-1.721c-7.549-13.366-21.366-21.67-36.055-21.67s-28.511 8.3-36.052 21.67a1.753 1.753 0 0 0 0 1.721c.081.143.172.277.254.419h-19.952v-79.669h111.5v79.669z"/><path d="m82.958 10.547a3.024 3.024 0 1 0 3.024 3.024 3.024 3.024 0 0 0 -3.024-3.024z"/><path d="m94.792 10.547a3.024 3.024 0 1 0 3.023 3.024 3.024 3.024 0 0 0 -3.023-3.024z"/><path d="m106.625 10.547a3.024 3.024 0 1 0 3.023 3.024 3.023 3.023 0 0 0 -3.023-3.024z"/><path d="m95.88 33.828h-63.76a1.75 1.75 0 0 0 -1.75 1.75v12a1.75 1.75 0 0 0 1.75 1.75h63.76a1.75 1.75 0 0 0 1.75-1.75v-12a1.75 1.75 0 0 0 -1.75-1.75zm-1.75 12h-60.26v-8.5h60.26z"/><path d="m63.986 89a11.65 11.65 0 0 0 -5.371 1.3 11.783 11.783 0 0 0 5.4 22.26 11.654 11.654 0 0 0 5.371-1.307 11.782 11.782 0 0 0 -5.4-22.253zm3.8 19.146a8.268 8.268 0 0 1 -11.149-3.579 8.289 8.289 0 0 1 3.578-11.148 8.27 8.27 0 0 1 11.148 3.578 8.29 8.29 0 0 1 -3.577 11.146z"/><path d="m64 57.313a1.75 1.75 0 0 0 -1.75 1.75v9.875a1.75 1.75 0 0 0 3.5 0v-9.875a1.75 1.75 0 0 0 -1.75-1.75z"/><path d="m81.381 60.939a1.75 1.75 0 0 0 -2.3.9l-3.949 9.051a1.749 1.749 0 0 0 .905 2.3 1.73 1.73 0 0 0 .7.147 1.751 1.751 0 0 0 1.605-1.05l3.949-9.051a1.749 1.749 0 0 0 -.91-2.297z"/><path d="m93.389 71.119-7.239 6.718a1.75 1.75 0 0 0 2.381 2.563l7.239-6.717a1.751 1.751 0 0 0 -2.381-2.567z"/><path d="m48.923 61.843a1.75 1.75 0 0 0 -3.208 1.4l3.949 9.051a1.751 1.751 0 0 0 1.6 1.05 1.73 1.73 0 0 0 .7-.147 1.749 1.749 0 0 0 .905-2.3z"/><path d="m34.611 71.119a1.751 1.751 0 0 0 -2.381 2.567l7.239 6.714a1.75 1.75 0 0 0 2.381-2.566z"/></svg>