<svg id="Layer_1" height="512" viewBox="0 0 128 128" width="512" xmlns="http://www.w3.org/2000/svg" data-name="Layer 1"><path d="m113.854 40.3h-17.03v-15.283h17.03a1.75 1.75 0 1 0 0-3.5h-18.78a1.742 1.742 0 0 0 -1.425.74l-35.173 1.615c-.035 0-.069 0-.1.008a24.685 24.685 0 0 0 -14.6 6.849l-16.771 16.353a3.26 3.26 0 0 0 2.276 5.594h1.665a16.535 16.535 0 0 0 8.054-2.1l12.13-6.776h3.418a9.622 9.622 0 0 0 9.446 7.856h21.859a1.751 1.751 0 0 0 1.337-.622l6.592-7.812a1.738 1.738 0 0 0 1.292.578h18.78a1.75 1.75 0 0 0 0-3.5zm-28.815 7.851h-21.045a6.113 6.113 0 0 1 -5.954-4.77l17.3-4.247a1.75 1.75 0 0 0 -.834-3.4l-18.58 4.566h-5.252a1.75 1.75 0 0 0 -.854.223l-12.527 7a13.019 13.019 0 0 1 -6.347 1.655h-1.075l16.35-15.942a21.178 21.178 0 0 1 12.468-5.868l34.635-1.591v12.555z"/><path d="m98.719 75.324h-1.665a16.538 16.538 0 0 0 -8.054 2.1l-12.13 6.781h-3.419a9.62 9.62 0 0 0 -9.445-7.856h-21.859a1.748 1.748 0 0 0 -1.337.622l-6.593 7.813a1.736 1.736 0 0 0 -1.292-.579h-18.779a1.75 1.75 0 0 0 0 3.5h17.029v15.278h-17.029a1.75 1.75 0 0 0 0 3.5h18.779a1.746 1.746 0 0 0 1.426-.74l35.173-1.615c.035 0 .069 0 .1-.008a24.688 24.688 0 0 0 14.6-6.849l16.771-16.353a3.26 3.26 0 0 0 -2.275-5.594zm-16.94 19.442a21.184 21.184 0 0 1 -12.467 5.868l-34.637 1.591v-12.557l8.285-9.819h21.046a6.115 6.115 0 0 1 5.954 4.77l-17.3 4.247a1.75 1.75 0 0 0 .416 3.45 1.778 1.778 0 0 0 .419-.051l18.575-4.56h5.253a1.756 1.756 0 0 0 .855-.223l12.525-7a13.026 13.026 0 0 1 6.348-1.655h1.075z"/></svg>