<svg id="Layer_1" height="512" viewBox="0 0 128 128" width="512" xmlns="http://www.w3.org/2000/svg" data-name="Layer 1"><path d="m121.5 4.75h-115a1.751 1.751 0 0 0 -1.75 1.75v97.31a1.751 1.751 0 0 0 1.75 1.75h30.33v15.94a1.751 1.751 0 0 0 1.75 1.75h50.84a1.751 1.751 0 0 0 1.75-1.75v-15.94h30.33a1.751 1.751 0 0 0 1.75-1.75v-97.31a1.751 1.751 0 0 0 -1.75-1.75zm-113.25 3.5h111.5v10.641h-111.5zm79.42 111.5h-6.611v-7.878a1.75 1.75 0 1 0 -3.5 0v7.878h-27.118v-7.878a1.75 1.75 0 1 0 -3.5 0v7.878h-6.611v-19.4a6.2 6.2 0 0 1 6.19-6.19h3.911a20.308 20.308 0 0 0 13.6 5.24 19.955 19.955 0 0 0 13.508-5.24h3.941a6.2 6.2 0 0 1 6.19 6.19zm-16.037-25.695a16.693 16.693 0 1 1 7.214-22.48 16.714 16.714 0 0 1 -7.214 22.48zm19.537 8v-1.71a9.7 9.7 0 0 0 -9.69-9.69h-.855a20.208 20.208 0 0 0 1.335-20.679 20.194 20.194 0 1 0 -34.585 20.684h-.855a9.7 9.7 0 0 0 -9.69 9.69v1.71h-28.58v-79.669h111.5v79.669z"/><path d="m82.958 10.547a3.024 3.024 0 1 0 3.024 3.023 3.024 3.024 0 0 0 -3.024-3.023z"/><path d="m94.792 10.547a3.024 3.024 0 1 0 3.023 3.023 3.024 3.024 0 0 0 -3.023-3.023z"/><circle cx="106.625" cy="13.57" r="3.023"/><path d="m106.784 46.4a11.821 11.821 0 0 0 .078-10.941 11.829 11.829 0 0 0 -21.042 10.82c.023.044.053.081.076.124a6.1 6.1 0 0 0 -5.2 6.027v11.55a1.751 1.751 0 0 0 1.75 1.75h5.506.019.019 16.693.02.019 5.5a1.751 1.751 0 0 0 1.75-1.75v-11.55a6.1 6.1 0 0 0 -5.188-6.03zm-18.374-8.074a8.329 8.329 0 1 1 13.767 8.488c-.014.013-.028.024-.041.037a8.328 8.328 0 0 1 -13.726-8.525zm20.07 23.9h-2.023v-3.506a1.75 1.75 0 0 0 -3.5 0v3.51h-13.232v-3.51a1.75 1.75 0 0 0 -3.5 0v3.51h-2.025v-9.8a2.6 2.6 0 0 1 2.59-2.6h1.858a11.885 11.885 0 0 0 7.712 2.87 11.682 11.682 0 0 0 7.687-2.869h1.843a2.6 2.6 0 0 1 2.59 2.6z"/><path d="m42.1 46.4c.023-.043.053-.08.076-.124a11.829 11.829 0 0 0 -21.037-10.814 11.821 11.821 0 0 0 .077 10.938 6.1 6.1 0 0 0 -5.2 6.027v11.553a1.751 1.751 0 0 0 1.75 1.75h5.5.019.02 16.701.019.019 5.506a1.751 1.751 0 0 0 1.75-1.75v-11.55a6.1 6.1 0 0 0 -5.2-6.03zm-17.853-9.34a8.338 8.338 0 1 1 1.614 9.789c-.014-.014-.029-.026-.044-.039a8.347 8.347 0 0 1 -1.566-9.747zm19.553 25.17h-2.025v-3.51a1.75 1.75 0 0 0 -3.5 0v3.51h-13.232v-3.51a1.75 1.75 0 0 0 -3.5 0v3.51h-2.023v-9.8a2.6 2.6 0 0 1 2.59-2.6h1.843a11.766 11.766 0 0 0 15.4 0h1.857a2.6 2.6 0 0 1 2.59 2.6z"/></svg>