<?xml version="1.0" encoding="iso-8859-1"?>
<!-- Generator: Adobe Illustrator 19.0.0, SVG Export Plug-In . SVG Version: 6.00 Build 0)  -->
<svg version="1.1" id="Layer_1" xmlns="http://www.w3.org/2000/svg" xmlns:xlink="http://www.w3.org/1999/xlink" x="0px" y="0px"
	 viewBox="0 0 505.058 505.058" style="enable-background:new 0 0 505.058 505.058;" xml:space="preserve">
<g>
	<g>
		<g>
			<path d="M435.634,123.521l9.546,11.281l4.339-14.753c10.414-29.505,13.017-39.919,7.81-52.068
				c-5.207-11.281-14.753-21.695-26.902-27.769c-19.091-9.546-33.844-7.81-72.027,7.81l-17.356,7.81l17.356,8.678
				C400.054,84.471,405.261,87.942,435.634,123.521z M424.353,56.701c8.678,4.339,15.62,11.281,19.092,19.091
				c1.736,5.207,1.736,8.678-3.471,25.166c-20.827-23.431-31.241-31.241-55.539-43.39C406.997,49.759,413.939,52.362,424.353,56.701
				z"/>
			<path d="M380.963,230.26c-1.736-26.902-12.149-50.332-31.241-68.556c-18.224-17.356-41.654-26.034-70.292-26.034
				c-28.637,0-51.2,8.678-70.292,26.034c-21.695,20.827-33.844,44.258-35.58,68.556l-0.868,9.546h210.007L380.963,230.26z
				 M191.783,222.45c3.471-16.488,13.017-32.976,28.637-47.729s34.712-21.695,59.01-21.695c25.166,0,43.39,6.942,59.01,21.695
				c13.885,13.017,22.563,28.637,25.166,47.729H191.783z"/>
			<path d="M366.21,327.454l-2.603,4.339c-8.678,15.62-20.827,27.769-32.976,35.58c-13.885,7.81-29.505,12.149-46.861,12.149
				c-16.488,0-32.108-3.471-45.993-12.149c-13.885-8.678-25.166-19.959-32.976-33.844c-6.075-11.281-11.281-21.695-13.017-32.976
				h310.671l0.868-7.81c0-5.207,0-11.281,0-17.356c0-3.471,0-6.075,0-9.546c0-39.919-1.736-78.97-19.959-113.681
				c20.827-57.275,17.356-100.664-10.414-129.302C458.197,8.972,433.898,2.898,400.054,5.501
				c-32.108,1.736-66.82,11.281-105.003,27.769c-5.207-0.868-9.546-0.868-14.753-0.868c-52.068,0-90.251,16.488-144.054,49.464
				c-40.786,25.166-81.573,58.142-110.21,129.302l13.885,9.546c26.034-22.563,54.671-44.258,82.441-62.481
				c-32.976,33.844-45.125,53.803-59.01,76.366l-2.603,4.339c-21.695,35.58-37.315,68.556-46.861,98.061
				C4.339,366.505,0,394.274,0,418.572c0,26.034,6.075,45.125,18.224,57.275c16.488,16.488,38.183,24.298,64.217,24.298
				c26.902,0,59.01-8.678,97.193-26.034c31.241,14.753,65.953,22.563,101.532,22.563c49.464,0,95.458-14.753,135.376-43.39
				c39.051-28.637,67.688-66.82,84.176-114.549l4.339-11.281H366.21z M405.261,438.532c-36.447,26.902-78.969,40.786-124.963,40.786
				c-34.712,0-67.688-7.81-98.061-22.563l-3.471-2.603l-3.471,1.736c-67.688,32.976-115.417,35.58-144.054,6.942
				c-9.546-7.81-13.885-23.43-13.885-44.258c0-22.563,4.339-48.597,13.885-77.234c8.678-27.769,24.298-59.878,45.125-93.722
				l2.603-4.339c15.62-24.298,28.637-45.993,72.027-88.515l10.414-10.414c9.546-10.414,14.753-16.488,18.224-19.092l-9.546-14.753
				c-33.844,15.62-73.763,41.654-110.21,71.159c25.166-42.522,55.539-65.953,85.912-85.044
				c50.332-30.373,86.78-46.861,134.508-46.861c5.207,0,10.414,0,15.62,0.868h2.603l2.603-0.868
				c36.447-16.488,70.292-26.034,100.664-27.77c28.637-1.736,48.597,2.603,59.01,13.017c23.43,23.431,25.166,62.481,5.207,114.549
				l-1.736,3.471l1.736,3.471c18.224,32.109,19.959,68.556,19.959,109.342c0,3.471,0,6.075,0,9.546c0,2.603,0,5.207,0,7.81H173.559
				v8.678c0,18.224,7.81,33.844,15.62,50.332c9.546,16.488,22.563,30.373,39.051,39.919c16.488,9.546,35.58,14.753,55.539,14.753
				c19.959,0,39.051-5.207,55.539-14.753c13.885-8.678,26.034-21.695,36.447-38.183h103.268
				C463.403,382.993,438.237,414.233,405.261,438.532z"/>
			<path d="M76.366,336.999l-6.942-19.092l-8.678,17.356c-27.77,55.539-43.39,91.119-14.753,118.888
				c10.414,10.414,20.827,14.753,34.712,14.753c18.224,0,40.786-7.81,70.292-20.827l14.753-6.942l-13.885-8.678
				C107.607,405.555,93.722,384.728,76.366,336.999z M58.142,441.135c-15.62-14.753-13.885-32.976,9.546-80.705
				c13.885,33.844,28.637,54.671,61.614,76.366C88.515,454.152,72.027,455.02,58.142,441.135z"/>
		</g>
	</g>
</g>
<g>
</g>
<g>
</g>
<g>
</g>
<g>
</g>
<g>
</g>
<g>
</g>
<g>
</g>
<g>
</g>
<g>
</g>
<g>
</g>
<g>
</g>
<g>
</g>
<g>
</g>
<g>
</g>
<g>
</g>
</svg>
