<svg xmlns="http://www.w3.org/2000/svg" width="183.875" height="22.062" viewBox="0 0 183.875 22.062">
  <metadata><?xpacket begin="﻿" id="W5M0MpCehiHzreSzNTczkc9d"?>
<x:xmpmeta xmlns:x="adobe:ns:meta/" x:xmptk="Adobe XMP Core 5.6-c142 79.160924, 2017/07/13-01:06:39        ">
   <rdf:RDF xmlns:rdf="http://www.w3.org/1999/02/22-rdf-syntax-ns#">
      <rdf:Description rdf:about=""/>
   </rdf:RDF>
</x:xmpmeta>
                                                                                                    
                                                                                                    
                                                                                                    
                                                                                                    
                                                                                                    
                                                                                                    
                                                                                                    
                                                                                                    
                                                                                                    
                                                                                                    
                                                                                                    
                                                                                                    
                                                                                                    
                                                                                                    
                                                                                                    
                                                                                                    
                                                                                                    
                                                                                                    
                                                                                                    
                                                                                                    
                           
<?xpacket end="w"?></metadata>
<defs>
    <style>
      .cls-1 {
        fill: #f9f9fb;
        fill-rule: evenodd;
      }
    </style>
  </defs>
  <path id="HystModal" class="cls-1" d="M625.406,381.821H620.88v8.394H612.4v-8.394h-4.541v21.416H612.4v-9.243h8.482v9.243h4.526V381.821Zm7.632,0h-4.922l7.105,13.228v8.188h4.511V394.9l7.105-13.081h-4.893l-4.467,8.818Zm28.023,11.931a11.463,11.463,0,0,0-4.117-2.878,27.319,27.319,0,0,1-2.878-1.5,3.049,3.049,0,0,1-.886-0.864,1.936,1.936,0,0,1-.279-1.047,1.983,1.983,0,0,1,.689-1.568,2.92,2.92,0,0,1,1.977-.6,9.151,9.151,0,0,1,2.205.278,21.449,21.449,0,0,1,2.834.982l1.465-3.531a21.962,21.962,0,0,0-3.171-1.113,12.562,12.562,0,0,0-3.186-.4,8,8,0,0,0-5.325,1.626,5.536,5.536,0,0,0-1.926,4.468,5.64,5.64,0,0,0,.586,2.637,6.64,6.64,0,0,0,1.567,1.977,13.116,13.116,0,0,0,2.945,1.773,26.705,26.705,0,0,1,2.775,1.45,3.923,3.923,0,0,1,1.033.945,1.873,1.873,0,0,1,.352,1.121,1.952,1.952,0,0,1-.8,1.7,3.9,3.9,0,0,1-2.292.571,10.89,10.89,0,0,1-2.747-.395,24.973,24.973,0,0,1-3.669-1.363v4.219a13.645,13.645,0,0,0,6.064,1.289,9.067,9.067,0,0,0,5.808-1.67,5.535,5.535,0,0,0,2.088-4.57A5.619,5.619,0,0,0,661.061,393.752Zm13.256-8.152h5.816v-3.779H663.961V385.6h5.815v17.637h4.541V385.6Zm22.339,17.637,5.523-16.772h0.132q-0.177,4.043-.2,4.98t-0.022,1.655v10.137h4.233V381.821h-6.181L694.767,398.2h-0.088l-5.069-16.377h-6.181v21.416h4.057v-9.961q0-1.713-.278-6.841h0.132l5.156,16.8h4.16Zm31.883-18.911q-2.616-2.843-7.552-2.842t-7.58,2.82q-2.644,2.82-2.644,8.166t2.636,8.2q2.637,2.856,7.559,2.856t7.559-2.856q2.635-2.857,2.636-8.174Q731.153,387.168,728.539,384.326ZM716.9,387.087a4.8,4.8,0,0,1,4.087-1.824q5.406,0,5.406,7.237,0,7.221-5.435,7.221a4.765,4.765,0,0,1-4.072-1.816A11.363,11.363,0,0,1,716.9,387.087Zm33.56-2.5q-2.9-2.769-8.145-2.769h-6.723v21.416h6.064q5.684,0,8.694-2.812t3.01-8.1Q753.36,387.357,750.46,384.59Zm-8.379,14.9h-1.948V385.542h2.417q6.093,0,6.094,6.9,0,7.047-6.563,7.046h0Zm33.721,3.75-7.588-21.5h-5.552l-7.558,21.5H760l1.553-5.1h7.807l1.553,5.1H775.8Zm-13.111-8.906q2.286-7.4,2.769-9.273,0.117,0.528.388,1.436t2.424,7.837h-5.581Zm29.034,8.906v-3.75h-8.687V381.821H778.5v21.416h13.228Z" transform="translate(-607.844 -381.469)"/>
</svg>
